<svg width="20" height="20" viewBox="0 0 20 20" fill="none" xmlns="http://www.w3.org/2000/svg">
<path d="M10 -0.00585938C8.07164 -0.00585937 6.18657 0.565968 4.58319 1.63731C2.97982 2.70866 1.73013 4.2314 0.992179 6.01298C0.254225 7.79456 0.061142 9.75496 0.437348 11.6463C0.813554 13.5376 1.74215 15.2749 3.10571 16.6384C4.46928 18.002 6.20656 18.9306 8.09787 19.3068C9.98919 19.683 11.9496 19.4899 13.7312 18.752C15.5127 18.014 17.0355 16.7643 18.1068 15.1609C19.1782 13.5576 19.75 11.6725 19.75 9.74414C19.7473 7.15912 18.7192 4.68075 16.8913 2.85286C15.0634 1.02498 12.585 -0.00312954 10 -0.00585938ZM10 17.9941C8.36831 17.9941 6.77326 17.5103 5.41655 16.6038C4.05984 15.6972 3.00242 14.4088 2.378 12.9013C1.75358 11.3938 1.5902 9.73499 1.90853 8.13465C2.22685 6.5343 3.01259 5.06429 4.16637 3.91051C5.32016 2.75673 6.79017 1.97099 8.39051 1.65266C9.99085 1.33433 11.6497 1.49771 13.1571 2.12213C14.6646 2.74656 15.9531 3.80398 16.8596 5.16069C17.7661 6.51739 18.25 8.11244 18.25 9.74414C18.2475 11.9314 17.3775 14.0284 15.8309 15.575C14.2843 17.1217 12.1873 17.9917 10 17.9941ZM11.5 14.2441C11.5 14.4431 11.421 14.6338 11.2803 14.7745C11.1397 14.9151 10.9489 14.9941 10.75 14.9941C10.3522 14.9941 9.97065 14.8361 9.68934 14.5548C9.40804 14.2735 9.25 13.892 9.25 13.4941V9.74414C9.05109 9.74414 8.86033 9.66512 8.71967 9.52447C8.57902 9.38382 8.5 9.19305 8.5 8.99414C8.5 8.79523 8.57902 8.60446 8.71967 8.46381C8.86033 8.32316 9.05109 8.24414 9.25 8.24414C9.64783 8.24414 10.0294 8.40218 10.3107 8.68348C10.592 8.96479 10.75 9.34632 10.75 9.74414V13.4941C10.9489 13.4941 11.1397 13.5732 11.2803 13.7138C11.421 13.8545 11.5 14.0452 11.5 14.2441ZM8.5 5.61914C8.5 5.39664 8.56598 5.17913 8.6896 4.99412C8.81322 4.80912 8.98892 4.66492 9.19449 4.57978C9.40005 4.49463 9.62625 4.47235 9.84448 4.51576C10.0627 4.55917 10.2632 4.66631 10.4205 4.82365C10.5778 4.98098 10.685 5.18144 10.7284 5.39966C10.7718 5.61789 10.7495 5.84409 10.6644 6.04966C10.5792 6.25523 10.435 6.43093 10.25 6.55454C10.065 6.67816 9.84751 6.74414 9.625 6.74414C9.32664 6.74414 9.04049 6.62561 8.82951 6.41464C8.61853 6.20366 8.5 5.91751 8.5 5.61914Z" fill="#42474F"/>
</svg>
