<svg width="24" height="25" viewBox="0 0 24 25" fill="none" xmlns="http://www.w3.org/2000/svg">
<path d="M2.62451 12.0957C2.47533 12.0957 2.33225 12.0364 2.22676 11.931C2.12127 11.8255 2.06201 11.6824 2.06201 11.5332C2.06201 11.384 2.12127 11.2409 2.22676 11.1355C2.33225 11.03 2.47533 10.9707 2.62451 10.9707H5.24951C5.49815 10.9707 5.73661 10.8719 5.91242 10.6961C6.08824 10.5203 6.18701 10.2818 6.18701 10.0332C6.18701 9.78456 6.08824 9.54611 5.91242 9.37029C5.73661 9.19448 5.49815 9.0957 5.24951 9.0957H3.74951C3.2025 9.0957 2.6779 8.8784 2.2911 8.49161C1.90431 8.10482 1.68701 7.58021 1.68701 7.0332C1.68701 6.48619 1.90431 5.96159 2.2911 5.5748C2.6779 5.188 3.2025 4.9707 3.74951 4.9707H3.93701V4.7832C3.93701 4.63402 3.99627 4.49094 4.10176 4.38546C4.20725 4.27997 4.35033 4.2207 4.49951 4.2207C4.6487 4.2207 4.79177 4.27997 4.89726 4.38546C5.00275 4.49094 5.06201 4.63402 5.06201 4.7832V4.9707H5.99951C6.1487 4.9707 6.29177 5.02997 6.39726 5.13546C6.50275 5.24094 6.56201 5.38402 6.56201 5.5332C6.56201 5.68239 6.50275 5.82546 6.39726 5.93095C6.29177 6.03644 6.1487 6.0957 5.99951 6.0957H3.74951C3.50087 6.0957 3.26241 6.19448 3.0866 6.37029C2.91078 6.54611 2.81201 6.78456 2.81201 7.0332C2.81201 7.28184 2.91078 7.5203 3.0866 7.69612C3.26241 7.87193 3.50087 7.9707 3.74951 7.9707H5.24951C5.79652 7.9707 6.32113 8.188 6.70792 8.5748C7.09471 8.96159 7.31201 9.48619 7.31201 10.0332C7.31201 10.5802 7.09471 11.1048 6.70792 11.4916C6.32113 11.8784 5.79652 12.0957 5.24951 12.0957H5.06201V12.2832C5.06201 12.4324 5.00275 12.5755 4.89726 12.681C4.79177 12.7864 4.6487 12.8457 4.49951 12.8457C4.35033 12.8457 4.20725 12.7864 4.10176 12.681C3.99627 12.5755 3.93701 12.4324 3.93701 12.2832V12.0957H2.62451ZM21.562 5.5332V18.2832C21.562 18.6313 21.4237 18.9651 21.1776 19.2113C20.9314 19.4574 20.5976 19.5957 20.2495 19.5957H3.74951C3.40142 19.5957 3.06758 19.4574 2.82143 19.2113C2.57529 18.9651 2.43701 18.6313 2.43701 18.2832V14.5332C2.43701 14.384 2.49627 14.2409 2.60176 14.1355C2.70725 14.03 2.85033 13.9707 2.99951 13.9707C3.1487 13.9707 3.29177 14.03 3.39726 14.1355C3.50275 14.2409 3.56201 14.384 3.56201 14.5332V18.2832C3.56201 18.3329 3.58177 18.3806 3.61693 18.4158C3.65209 18.4509 3.69978 18.4707 3.74951 18.4707H15.187V15.0957H7.49951C7.35033 15.0957 7.20725 15.0364 7.10176 14.931C6.99628 14.8255 6.93701 14.6824 6.93701 14.5332C6.93701 14.384 6.99628 14.2409 7.10176 14.1355C7.20725 14.03 7.35033 13.9707 7.49951 13.9707H15.187V10.5957H9.74951C9.60033 10.5957 9.45725 10.5364 9.35176 10.431C9.24628 10.3255 9.18701 10.1824 9.18701 10.0332C9.18701 9.88402 9.24628 9.74094 9.35176 9.63546C9.45725 9.52997 9.60033 9.4707 9.74951 9.4707H20.437V6.0957H8.99951C8.85033 6.0957 8.70725 6.03644 8.60176 5.93095C8.49628 5.82546 8.43701 5.68239 8.43701 5.5332C8.43701 5.38402 8.49628 5.24094 8.60176 5.13546C8.70725 5.02997 8.85033 4.9707 8.99951 4.9707H20.9995C21.1487 4.9707 21.2918 5.02997 21.3973 5.13546C21.5027 5.24094 21.562 5.38402 21.562 5.5332ZM16.312 13.9707H20.437V10.5957H16.312V13.9707ZM20.437 18.2832V15.0957H16.312V18.4707H20.2495C20.2992 18.4707 20.3469 18.4509 20.3821 18.4158C20.4173 18.3806 20.437 18.3329 20.437 18.2832Z" fill="black"/>
</svg>
