<svg width="24" height="25" viewBox="0 0 24 25" fill="none" xmlns="http://www.w3.org/2000/svg">
<path d="M20.88 6.64999L12.63 2.13311C12.4371 2.02658 12.2204 1.9707 12 1.9707C11.7796 1.9707 11.5629 2.02658 11.37 2.13311L3.12 6.64999C2.91357 6.76294 2.7413 6.92931 2.62123 7.13168C2.50115 7.33405 2.4377 7.56499 2.4375 7.8003V16.7666C2.4377 17.0019 2.50115 17.2328 2.62123 17.4352C2.7413 17.6375 2.91357 17.8039 3.12 17.9169L11.37 22.4337C11.5629 22.5401 11.7797 22.5959 12 22.5959C12.2203 22.5959 12.4371 22.5401 12.63 22.4337L20.88 17.9169C21.0864 17.8039 21.2587 17.6375 21.3788 17.4352C21.4988 17.2328 21.5623 17.0019 21.5625 16.7666V7.8003C21.5623 7.56499 21.4988 7.33405 21.3788 7.13168C21.2587 6.92931 21.0864 6.76294 20.88 6.64999ZM11.9062 3.11936C11.9338 3.10426 11.9648 3.09635 11.9963 3.09635C12.0277 3.09635 12.0587 3.10426 12.0863 3.11936L19.9228 7.40842L16.7409 9.14936L8.81719 4.81249L11.9062 3.11936ZM11.4375 21.1897L3.65625 16.9306C3.6275 16.914 3.60367 16.8901 3.5872 16.8613C3.57073 16.8324 3.5622 16.7997 3.5625 16.7666V8.4078L11.4375 12.7203V21.1897ZM4.07719 7.40842L7.64625 5.45374L15.5691 9.79061L12 11.7434L4.07719 7.40842ZM20.4375 16.7666C20.4378 16.7997 20.4293 16.8324 20.4128 16.8613C20.3963 16.8901 20.3725 16.914 20.3438 16.9306L12.5625 21.1897V12.7184L15.9375 10.8706V14.5334C15.9375 14.6826 15.9968 14.8257 16.1023 14.9312C16.2077 15.0367 16.3508 15.0959 16.5 15.0959C16.6492 15.0959 16.7923 15.0367 16.8977 14.9312C17.0032 14.8257 17.0625 14.6826 17.0625 14.5334V10.2556L20.4375 8.4078V16.7666Z" fill="black"/>
</svg>
