<svg width="24" height="25" viewBox="0 0 24 25" fill="none" xmlns="http://www.w3.org/2000/svg">
<path d="M19.5005 4.2207H4.50049C4.15239 4.2207 3.81855 4.35898 3.57241 4.60513C3.32627 4.85127 3.18799 5.18511 3.18799 5.5332V10.7832C3.18799 15.6526 5.54299 18.602 7.51924 20.2182C9.65018 21.962 11.7633 22.5516 11.8524 22.576C11.9493 22.6025 12.0516 22.6025 12.1486 22.576C12.2377 22.5516 14.3508 21.962 16.4817 20.2182C18.458 18.602 20.813 15.6526 20.813 10.7832V5.5332C20.813 5.18511 20.6747 4.85127 20.4286 4.60513C20.1824 4.35898 19.8486 4.2207 19.5005 4.2207ZM19.688 10.7832C19.688 14.3232 18.3811 17.1948 15.803 19.3201C14.672 20.2488 13.3843 20.9682 12.0005 21.4445C10.6165 20.9687 9.32872 20.2492 8.19799 19.3201C5.61986 17.1948 4.31299 14.3232 4.31299 10.7832V5.5332C4.31299 5.48348 4.33274 5.43578 4.36791 5.40062C4.40307 5.36546 4.45076 5.3457 4.50049 5.3457H19.5005C19.5502 5.3457 19.5979 5.36546 19.6331 5.40062C19.6682 5.43578 19.688 5.48348 19.688 5.5332V10.7832ZM16.148 9.6357C16.2533 9.74117 16.3125 9.88414 16.3125 10.0332C16.3125 10.1823 16.2533 10.3252 16.148 10.4307L10.898 15.6807C10.7925 15.786 10.6496 15.8452 10.5005 15.8452C10.3514 15.8452 10.2085 15.786 10.103 15.6807L7.85299 13.4307C7.75363 13.3241 7.69954 13.183 7.70211 13.0373C7.70468 12.8916 7.76371 12.7525 7.86677 12.6495C7.96983 12.5464 8.10887 12.4874 8.2546 12.4848C8.40032 12.4823 8.54136 12.5363 8.64799 12.6357L10.5005 14.4873L15.353 9.6357C15.4585 9.53037 15.6014 9.4712 15.7505 9.4712C15.8996 9.4712 16.0425 9.53037 16.148 9.6357Z" fill="black"/>
</svg>
