<svg width="24" height="25" viewBox="0 0 24 25" fill="none" xmlns="http://www.w3.org/2000/svg">
<path d="M22.2606 6.91048C22.1956 6.70783 22.0717 6.52915 21.9047 6.39723C21.7378 6.26531 21.5353 6.18615 21.3231 6.16985L17.7456 5.8886L16.3675 2.62704C16.2846 2.43234 16.1462 2.26632 15.9697 2.14962C15.7932 2.03292 15.5863 1.9707 15.3746 1.9707C15.163 1.9707 14.9561 2.03292 14.7796 2.14962C14.603 2.26632 14.4647 2.43234 14.3818 2.62704L13.0056 5.88766L9.42902 6.16891C9.21732 6.18423 9.015 6.26228 8.84786 6.3931C8.68073 6.52393 8.55638 6.70159 8.49068 6.90342C8.42498 7.10524 8.42092 7.32206 8.47901 7.5262C8.53711 7.73034 8.65472 7.91254 8.81683 8.04954L11.5356 10.3445L10.705 13.7749C10.6556 13.9792 10.6679 14.1936 10.7403 14.391C10.8128 14.5884 10.942 14.7599 11.1118 14.8839C11.2838 15.0105 11.4894 15.0832 11.7026 15.0929C11.9159 15.1026 12.1273 15.0488 12.31 14.9383L15.3746 13.0952L18.4393 14.9392C18.6219 15.0496 18.8331 15.1034 19.0462 15.0937C19.2593 15.084 19.4647 15.0113 19.6365 14.8849C19.8065 14.761 19.9359 14.5895 20.0084 14.3921C20.0808 14.1947 20.093 13.9802 20.0434 13.7758L19.2184 10.3455L21.9371 8.05048C22.0983 7.91417 22.2152 7.73289 22.2728 7.52982C22.3304 7.32675 22.3262 7.11112 22.2606 6.91048ZM18.2218 9.71079C18.1413 9.77779 18.0811 9.86594 18.0479 9.96533C18.0148 10.0647 18.0101 10.1714 18.0343 10.2733L18.9165 13.9164L15.6653 11.957C15.5777 11.9043 15.4774 11.8764 15.3751 11.8764C15.2729 11.8764 15.1725 11.9043 15.085 11.957L11.83 13.9155L12.7121 10.2724C12.7364 10.1704 12.7317 10.0638 12.6985 9.96439C12.6654 9.86501 12.6052 9.77685 12.5246 9.70985L9.65027 7.28173L13.435 6.98266C13.5378 6.97461 13.6365 6.93843 13.7201 6.87808C13.8038 6.81773 13.8692 6.73553 13.9093 6.64048L15.3746 3.17172L16.84 6.64048C16.88 6.73553 16.9455 6.81773 17.0292 6.87808C17.1128 6.93843 17.2115 6.97461 17.3143 6.98266L21.099 7.28173L18.2218 9.71079ZM8.12683 11.7011L2.64714 17.1808C2.54051 17.2801 2.39947 17.3342 2.25375 17.3317C2.10802 17.3291 1.96898 17.2701 1.86592 17.167C1.76286 17.0639 1.70383 16.9249 1.70126 16.7792C1.69869 16.6335 1.75278 16.4924 1.85214 16.3858L7.33183 10.9061C7.43846 10.8067 7.57949 10.7526 7.72522 10.7552C7.87095 10.7578 8.00998 10.8168 8.11304 10.9199C8.2161 11.0229 8.27514 11.162 8.27771 11.3077C8.28028 11.4534 8.22619 11.5945 8.12683 11.7011ZM9.1412 16.6417C9.1935 16.694 9.23499 16.756 9.2633 16.8243C9.29161 16.8926 9.30618 16.9658 9.30618 17.0397C9.30618 17.1136 9.29161 17.1868 9.2633 17.2551C9.23499 17.3234 9.1935 17.3854 9.1412 17.4377L4.14714 22.4308C4.04051 22.5301 3.89947 22.5842 3.75375 22.5817C3.60802 22.5791 3.46898 22.5201 3.36592 22.417C3.26286 22.3139 3.20383 22.1749 3.20126 22.0292C3.19869 21.8835 3.25278 21.7424 3.35214 21.6358L8.34339 16.6417C8.39567 16.5891 8.45782 16.5474 8.52628 16.5189C8.59474 16.4905 8.66815 16.4758 8.7423 16.4758C8.81644 16.4758 8.88985 16.4905 8.95831 16.5189C9.02677 16.5474 9.08893 16.5891 9.1412 16.6417ZM15.985 16.548C16.0903 16.6534 16.1495 16.7964 16.1495 16.9455C16.1495 17.0945 16.0903 17.2375 15.985 17.343L10.8953 22.4317C10.7886 22.5311 10.6476 22.5852 10.5019 22.5826C10.3561 22.58 10.2171 22.521 10.114 22.4179C10.011 22.3149 9.95196 22.1758 9.94938 22.0301C9.94681 21.8844 10.0009 21.7434 10.1003 21.6367L15.1871 16.547C15.2394 16.4942 15.3017 16.4522 15.3704 16.4236C15.439 16.3949 15.5126 16.3802 15.587 16.3802C15.6614 16.3802 15.735 16.3949 15.8036 16.4236C15.8722 16.4522 15.9345 16.4942 15.9868 16.547L15.985 16.548Z" fill="black"/>
</svg>
