<svg width="219" height="54" viewBox="0 0 219 54" fill="none" xmlns="http://www.w3.org/2000/svg">
<path d="M25.3642 23.2149C24.2618 23.2149 23.3682 24.1086 23.3682 25.2109C23.3682 26.3133 24.2618 27.2069 25.3642 27.2069C26.4666 27.2069 27.3602 26.3133 27.3602 25.2109C27.3602 24.1086 26.4666 23.2149 25.3642 23.2149ZM24.9899 25.2109L24.9899 25.922L25.7384 25.922L25.7384 25.2109L24.9899 25.2109ZM24.9899 27.3442L24.9899 28.7663L25.7384 28.7663L25.7384 27.3442L24.9899 27.3442ZM24.9899 30.1885L24.9899 31.6106L25.7384 31.6106L25.7384 30.1885L24.9899 30.1885ZM24.9899 33.0328L24.9899 34.4549L25.7384 34.4549L25.7384 33.0328L24.9899 33.0328ZM24.9899 35.8771L24.9899 37.2993L25.7384 37.2993L25.7384 35.8771L24.9899 35.8771ZM24.9899 38.7214L24.9899 40.1436L25.7384 40.1436L25.7384 38.7214L24.9899 38.7214ZM24.9899 41.5657L24.9899 42.9879L25.7384 42.9879L25.7384 41.5657L24.9899 41.5657ZM24.9899 44.41L24.9899 45.8322L25.7384 45.8322L25.7384 44.41L24.9899 44.41ZM24.9899 47.2543L24.9899 48.6765L25.7384 48.6765L25.7384 47.2543L24.9899 47.2543ZM24.9899 50.0987L24.9899 51.5208L25.7384 51.5208L25.7384 50.0987L24.9899 50.0987ZM24.9899 52.943L24.9899 53.6541L25.7384 53.6541L25.7384 52.943L24.9899 52.943Z" fill="#F0F0F5"/>
<path d="M109.5 0.759851C108.398 0.759852 107.504 1.65349 107.504 2.75586C107.504 3.85822 108.398 4.75187 109.5 4.75187C110.602 4.75187 111.496 3.85822 111.496 2.75586C111.496 1.65349 110.602 0.759851 109.5 0.759851ZM109.126 2.75586L109.126 3.50436L109.874 3.50436L109.874 2.75586L109.126 2.75586ZM109.126 5.00137L109.126 6.49837L109.874 6.49837L109.874 5.00137L109.126 5.00137ZM109.126 7.99538L109.126 9.49239L109.874 9.49239L109.874 7.99538L109.126 7.99538ZM109.126 10.9894L109.126 12.4864L109.874 12.4864L109.874 10.9894L109.126 10.9894ZM109.126 13.9834L109.126 15.4804L109.874 15.4804L109.874 13.9834L109.126 13.9834ZM109.126 16.9774L109.126 18.4744L109.874 18.4744L109.874 16.9774L109.126 16.9774ZM109.126 19.9714L109.126 21.4684L109.874 21.4684L109.874 19.9714L109.126 19.9714ZM109.126 22.9654L109.126 24.4624L109.874 24.4624L109.874 22.9654L109.126 22.9654ZM109.126 25.9595L109.126 27.4565L109.874 27.4565L109.874 25.9595L109.126 25.9595ZM109.126 28.9535L109.126 30.4505L109.874 30.4505L109.874 28.9535L109.126 28.9535ZM109.126 31.9475L109.126 33.4445L109.874 33.4445L109.874 31.9475L109.126 31.9475ZM109.126 34.9415L109.126 36.4385L109.874 36.4385L109.874 34.9415L109.126 34.9415ZM109.126 37.9355L109.126 39.4325L109.874 39.4325L109.874 37.9355L109.126 37.9355ZM109.126 40.9295L109.126 42.4265L109.874 42.4265L109.874 40.9295L109.126 40.9295ZM109.126 43.9235L109.126 45.4205L109.874 45.4205L109.874 43.9235L109.126 43.9235ZM109.126 46.9175L109.126 48.4145L109.874 48.4145L109.874 46.9175L109.126 46.9175ZM109.126 49.9115L109.126 51.4085L109.874 51.4085L109.874 49.9115L109.126 49.9115ZM109.126 52.9055L109.126 53.6541L109.874 53.6541L109.874 52.9055L109.126 52.9055Z" fill="#F0F0F5"/>
<path d="M195.261 30.7003C194.158 30.7003 193.265 31.5939 193.265 32.6963C193.265 33.7987 194.158 34.6923 195.261 34.6923C196.363 34.6923 197.257 33.7987 197.257 32.6963C197.257 31.5939 196.363 30.7003 195.261 30.7003ZM194.886 32.6963L194.886 33.4448L195.635 33.4448L195.635 32.6963L194.886 32.6963ZM194.886 34.9418L194.886 36.4388L195.635 36.4388L195.635 34.9418L194.886 34.9418ZM194.886 37.9358L194.886 39.4328L195.635 39.4328L195.635 37.9358L194.886 37.9358ZM194.886 40.9298L194.886 42.4268L195.635 42.4268L195.635 40.9298L194.886 40.9298ZM194.886 43.9238L194.886 45.4208L195.635 45.4208L195.635 43.9238L194.886 43.9238ZM194.886 46.9178L194.886 48.4149L195.635 48.4149L195.635 46.9178L194.886 46.9178ZM194.886 49.9119L194.886 51.4089L195.635 51.4089L195.635 49.9119L194.886 49.9119ZM194.886 52.9059L194.886 53.6544L195.635 53.6544L195.635 52.9059L194.886 52.9059Z" fill="#F0F0F5"/>
<path d="M1 18.8484L23.4074 25.0441C24.6885 25.3983 26.0408 25.405 27.3254 25.0635L107.604 3.72031C109.051 3.33555 110.581 3.39372 111.994 3.88729L194.337 32.634C195.163 32.9224 195.932 33.3535 196.609 33.9076L218 51.4083" stroke="#F0F0F5" stroke-width="0.748503"/>
</svg>
